<mxfile host="app.diagrams.net" modified="2020-04-22T12:56:00.236Z" agent="5.0 (Macintosh; Intel Mac OS X 10_15_2) AppleWebKit/537.36 (KHTML, like Gecko) Chrome/80.0.3987.163 Safari/537.36" etag="GcSL8lb86-7aVHrfpYCt" version="13.0.1" type="github">
  <diagram id="prtHgNgQTEPvFCAcTncT" name="Page-1">
    <mxGraphModel dx="946" dy="614" grid="1" gridSize="10" guides="1" tooltips="1" connect="1" arrows="1" fold="1" page="1" pageScale="1" pageWidth="827" pageHeight="1169" math="0" shadow="0">
      <root>
        <mxCell id="0" />
        <mxCell id="1" parent="0" />
        <mxCell id="X8DeC1sa1qK8NjDn5Fl9-25" value="" style="shape=ext;rounded=1;html=1;whiteSpace=wrap;dashed=1;dashPattern=1 4;" parent="1" vertex="1">
          <mxGeometry y="40" width="910" height="360" as="geometry" />
        </mxCell>
        <mxCell id="X8DeC1sa1qK8NjDn5Fl9-1" value="&lt;b&gt;YTOM&lt;/b&gt;" style="rounded=0;whiteSpace=wrap;html=1;fillColor=#f8cecc;strokeColor=#b85450;" parent="1" vertex="1">
          <mxGeometry x="20" y="150" width="120" height="70" as="geometry" />
        </mxCell>
        <mxCell id="X8DeC1sa1qK8NjDn5Fl9-2" value="&lt;b&gt;TMS&lt;br&gt;Doc printing&lt;/b&gt;" style="rounded=0;whiteSpace=wrap;html=1;fillColor=#f8cecc;strokeColor=#b85450;" parent="1" vertex="1">
          <mxGeometry x="170" y="200" width="120" height="70" as="geometry" />
        </mxCell>
        <mxCell id="X8DeC1sa1qK8NjDn5Fl9-3" value="&lt;b&gt;YTOM mobile&lt;br&gt;Inspector&lt;/b&gt;" style="rounded=0;whiteSpace=wrap;html=1;fillColor=#f8cecc;strokeColor=#b85450;" parent="1" vertex="1">
          <mxGeometry x="330" y="150" width="120" height="70" as="geometry" />
        </mxCell>
        <mxCell id="X8DeC1sa1qK8NjDn5Fl9-4" value="&lt;b&gt;WMS&lt;/b&gt;" style="rounded=0;whiteSpace=wrap;html=1;fillColor=#fff2cc;strokeColor=#d6b656;dashed=1;" parent="1" vertex="1">
          <mxGeometry x="480" y="210" width="120" height="70" as="geometry" />
        </mxCell>
        <mxCell id="X8DeC1sa1qK8NjDn5Fl9-5" value="&lt;b&gt;Contract&lt;/b&gt;" style="rounded=0;whiteSpace=wrap;html=1;fillColor=#fff2cc;strokeColor=#d6b656;dashed=1;" parent="1" vertex="1">
          <mxGeometry x="630" y="150" width="120" height="70" as="geometry" />
        </mxCell>
        <mxCell id="X8DeC1sa1qK8NjDn5Fl9-6" value="&lt;b&gt;Planning&amp;nbsp;&lt;br&gt;OEM API&lt;/b&gt;" style="rounded=0;whiteSpace=wrap;html=1;fillColor=#fff2cc;strokeColor=#d6b656;dashed=1;" parent="1" vertex="1">
          <mxGeometry x="770" y="210" width="120" height="70" as="geometry" />
        </mxCell>
        <mxCell id="X8DeC1sa1qK8NjDn5Fl9-7" value="&lt;b&gt;&lt;font style=&quot;font-size: 24px&quot;&gt;Menaklars&lt;/font&gt;&lt;/b&gt;" style="text;html=1;strokeColor=none;fillColor=none;align=center;verticalAlign=middle;whiteSpace=wrap;rounded=0;" parent="1" vertex="1">
          <mxGeometry x="40" y="50" width="170" height="50" as="geometry" />
        </mxCell>
        <mxCell id="X8DeC1sa1qK8NjDn5Fl9-8" value="All Transport Orders in one place" style="rounded=1;whiteSpace=wrap;html=1;fillColor=#f5f5f5;strokeColor=#666666;fontColor=#333333;" parent="1" vertex="1">
          <mxGeometry x="20" y="250" width="120" height="60" as="geometry" />
        </mxCell>
        <mxCell id="X8DeC1sa1qK8NjDn5Fl9-9" value="Transport availability plan &amp;amp; automatic docs filling" style="rounded=1;whiteSpace=wrap;html=1;fillColor=#f5f5f5;strokeColor=#666666;fontColor=#333333;" parent="1" vertex="1">
          <mxGeometry x="170" y="300" width="120" height="60" as="geometry" />
        </mxCell>
        <mxCell id="X8DeC1sa1qK8NjDn5Fl9-10" value="" style="endArrow=none;dashed=1;html=1;" parent="1" source="X8DeC1sa1qK8NjDn5Fl9-8" edge="1">
          <mxGeometry width="50" height="50" relative="1" as="geometry">
            <mxPoint x="40" y="260" as="sourcePoint" />
            <mxPoint x="80" y="220" as="targetPoint" />
          </mxGeometry>
        </mxCell>
        <mxCell id="X8DeC1sa1qK8NjDn5Fl9-11" value="" style="endArrow=none;dashed=1;html=1;entryX=0.5;entryY=1;entryDx=0;entryDy=0;" parent="1" source="X8DeC1sa1qK8NjDn5Fl9-9" target="X8DeC1sa1qK8NjDn5Fl9-2" edge="1">
          <mxGeometry width="50" height="50" relative="1" as="geometry">
            <mxPoint x="210" y="330" as="sourcePoint" />
            <mxPoint x="260" y="280" as="targetPoint" />
          </mxGeometry>
        </mxCell>
        <mxCell id="X8DeC1sa1qK8NjDn5Fl9-12" value="Transport instruction &amp;amp; inspections&amp;nbsp;" style="rounded=1;whiteSpace=wrap;html=1;fillColor=#f5f5f5;strokeColor=#666666;fontColor=#333333;" parent="1" vertex="1">
          <mxGeometry x="330" y="250" width="120" height="60" as="geometry" />
        </mxCell>
        <mxCell id="X8DeC1sa1qK8NjDn5Fl9-13" value="address storage" style="rounded=1;whiteSpace=wrap;html=1;fillColor=#f5f5f5;strokeColor=#666666;fontColor=#333333;" parent="1" vertex="1">
          <mxGeometry x="480" y="310" width="120" height="60" as="geometry" />
        </mxCell>
        <mxCell id="X8DeC1sa1qK8NjDn5Fl9-14" value="Customers billing" style="rounded=1;whiteSpace=wrap;html=1;fillColor=#f5f5f5;strokeColor=#666666;fontColor=#333333;" parent="1" vertex="1">
          <mxGeometry x="630" y="250" width="120" height="60" as="geometry" />
        </mxCell>
        <mxCell id="X8DeC1sa1qK8NjDn5Fl9-16" value="Truck planning" style="rounded=1;whiteSpace=wrap;html=1;fillColor=#f5f5f5;strokeColor=#666666;fontColor=#333333;" parent="1" vertex="1">
          <mxGeometry x="770" y="310" width="120" height="60" as="geometry" />
        </mxCell>
        <mxCell id="X8DeC1sa1qK8NjDn5Fl9-17" value="" style="endArrow=none;dashed=1;html=1;entryX=0.5;entryY=1;entryDx=0;entryDy=0;exitX=0.5;exitY=0;exitDx=0;exitDy=0;" parent="1" source="X8DeC1sa1qK8NjDn5Fl9-12" target="X8DeC1sa1qK8NjDn5Fl9-3" edge="1">
          <mxGeometry width="50" height="50" relative="1" as="geometry">
            <mxPoint x="370" y="270" as="sourcePoint" />
            <mxPoint x="420" y="220" as="targetPoint" />
          </mxGeometry>
        </mxCell>
        <mxCell id="X8DeC1sa1qK8NjDn5Fl9-21" value="" style="endArrow=none;dashed=1;html=1;entryX=0.5;entryY=1;entryDx=0;entryDy=0;exitX=0.5;exitY=0;exitDx=0;exitDy=0;" parent="1" source="X8DeC1sa1qK8NjDn5Fl9-13" target="X8DeC1sa1qK8NjDn5Fl9-4" edge="1">
          <mxGeometry width="50" height="50" relative="1" as="geometry">
            <mxPoint x="510" y="360" as="sourcePoint" />
            <mxPoint x="560" y="310" as="targetPoint" />
          </mxGeometry>
        </mxCell>
        <mxCell id="X8DeC1sa1qK8NjDn5Fl9-22" value="" style="endArrow=none;dashed=1;html=1;entryX=0.5;entryY=1;entryDx=0;entryDy=0;" parent="1" source="X8DeC1sa1qK8NjDn5Fl9-14" target="X8DeC1sa1qK8NjDn5Fl9-5" edge="1">
          <mxGeometry width="50" height="50" relative="1" as="geometry">
            <mxPoint x="610" y="410" as="sourcePoint" />
            <mxPoint x="660" y="360" as="targetPoint" />
          </mxGeometry>
        </mxCell>
        <mxCell id="X8DeC1sa1qK8NjDn5Fl9-23" value="" style="endArrow=none;dashed=1;html=1;entryX=0.5;entryY=1;entryDx=0;entryDy=0;exitX=0.5;exitY=0;exitDx=0;exitDy=0;" parent="1" source="X8DeC1sa1qK8NjDn5Fl9-16" target="X8DeC1sa1qK8NjDn5Fl9-6" edge="1">
          <mxGeometry width="50" height="50" relative="1" as="geometry">
            <mxPoint x="550" y="570" as="sourcePoint" />
            <mxPoint x="600" y="520" as="targetPoint" />
          </mxGeometry>
        </mxCell>
      </root>
    </mxGraphModel>
  </diagram>
</mxfile>
